<?xml version="1.0" standalone="no"?>
<!DOCTYPE svg PUBLIC "-//W3C//DTD SVG 1.1//EN" "http://www.w3.org/Graphics/SVG/1.1/DTD/svg11.dtd" >
<svg>
<metadata>
Created by FontForge 20090622 at Thu Jan 12 12:29:00 2017
 By deploy user
(C) 2000 SHAKAGRAPHICS
</metadata>
<defs>
<font id="SHAKAGRAPHICS05" horiz-adv-x="801" >
  <font-face 
    font-family="SG05"
    font-weight="400"
    font-stretch="normal"
    units-per-em="1000"
    panose-1="0 0 4 0 0 0 0 0 0 0"
    ascent="800"
    descent="-200"
    x-height="500"
    cap-height="700"
    bbox="0 -100 800 800"
    underline-thickness="20"
    underline-position="-123"
    unicode-range="U+0020-U+00AD"
  />
<missing-glyph horiz-adv-x="500" 
d="M63 0v800h375v-800h-375zM125 63h250v675h-250v-675z" />
    <glyph glyph-name=".notdef" horiz-adv-x="500" 
d="M63 0v800h375v-800h-375zM125 63h250v675h-250v-675z" />
    <glyph glyph-name=".null" horiz-adv-x="0" 
 />
    <glyph glyph-name="nonmarkingreturn" horiz-adv-x="700" 
 />
    <glyph glyph-name="space" unicode=" " horiz-adv-x="700" 
 />
    <glyph glyph-name="exclam" unicode="!" horiz-adv-x="399" 
d="M0 700h300v-700h-300v700zM200 101v100h-100v-100h100zM200 301v300h-100v-300h100z" />
    <glyph glyph-name="quotedbl" unicode="&#x22;" horiz-adv-x="602" 
d="M0 700h500v-400h-500v400zM200 400v201h-100v-201h100zM400 400v200h-100v-200h100z" />
    <glyph glyph-name="numbersign" unicode="#" 
d="M600 600h100v-500h-100v-100h-500v100h-100v500h100v100h500v-100zM599 400v100h-99v99h-100v-99h-100v99h-100v-99h-101v-100h101v-100h-101v-100h101v-102h100v102h100v-102h100v102h99v100h-99v100h99zM300 300v100h100v-100h-100z" />
    <glyph glyph-name="dollar" unicode="$" 
d="M0 701h700v-700h-700v700zM600 500v99h-500v-300h200v-100h-200v-100h500v301h-200v100h200zM400 200v100h100v-100h-100zM300 400h-100v100h100v-100z" />
    <glyph glyph-name="percent" unicode="%" 
d="M600 100v100h-100v-100h100zM100 200v-100h100v100h-100zM200 300v-100h100v100h-100zM300 400v-100h100v100h-100zM100 500h100v100h-100v-100zM400 500v-100h100v100h-100zM500 600v-100h100v100h-100zM600 500v-100h-100v-100h200v-300h-300v200h-100v-100h-100v-100
h-200v200h100v100h100v100h-200v300h300v-200h100v100h100v100h200v-200h-100z" />
    <glyph glyph-name="ampersand" unicode="&#x26;" horiz-adv-x="901" 
d="M500 200h-300v100h-100v-200h400v100zM200 500h200v-100h-200v-100h300v300h-300v-100zM100 400h100v100h-100v-100zM700 300v100h-100v-100h100zM700 200h100v-200h-200v100h-100v-100h-500v300h100v100h-100v200h100v100h500v-200h200v-200h-100v-100zM600 200v-100
h100v100h-100zM600 300h-100v-100h100v100z" />
    <glyph glyph-name="quotesingle" unicode="'" horiz-adv-x="400" 
d="M0 702h300v-400h-300v400zM200 401v199h-100v-199h100z" />
    <glyph glyph-name="parenleft" unicode="(" horiz-adv-x="502" 
d="M300 300h100v-300h-300v100h-100v500h100v100h300v-300h-100v-100zM300 100v99h-100v302h100v99h-100v-99h-100v-302h100v-99h100z" />
    <glyph glyph-name="parenright" unicode=")" horiz-adv-x="500" 
d="M100 400h-100v300h300v-100h100v-500h-100v-100h-300v300h100v100zM100 600v-99h100v-302h-100v-99h100v99h100v302h-100v99h-100z" />
    <glyph glyph-name="asterisk" unicode="*" horiz-adv-x="602" 
d="M300 300h-100v100h100v-100zM400 300h100v-200h-200v100h100v100zM300 500v100h200v-200h-100v100h-100zM100 400h-100v200h200v-100h-100v-100zM200 200v-100h-200v200h100v-100h100z" />
    <glyph glyph-name="plus" unicode="+" horiz-adv-x="602" 
d="M400 500h100v-300h-100v-100h-300v100h-100v300h100v99h300v-99zM401 300v100h-101v100h-100v-100h-100v-100h100v-100h100v100h101z" />
    <glyph glyph-name="comma" unicode="," horiz-adv-x="500" 
d="M300 100v-100h-300v300h100v100h300v-300h-100zM100 100h100v100h100v100h-100v-100h-100v-100z" />
    <glyph glyph-name="hyphen" unicode="-" horiz-adv-x="602" 
d="M0 500h500v-300h-500v300zM401 300v100h-301v-100h301z" />
    <glyph glyph-name="hyphen" unicode="&#x2010;" horiz-adv-x="602" 
d="M0 500h500v-300h-500v300zM401 300v100h-301v-100h301z" />
    <glyph glyph-name="period" unicode="." horiz-adv-x="397" 
d="M0 300h300v-300h-300v300zM200 100v100h-100v-100h100z" />
    <glyph glyph-name="slash" unicode="/" 
d="M100 200v-100h100v100h-100zM200 300v-100h100v100h-100zM300 400v-100h100v100h-100zM400 500v-100h100v100h-100zM500 600v-100h100v100h-100zM500 700h200v-200h-100v-100h-100v-100h-100v-100h-100v-100h-100v-100h-200v200h100v100h100v100h100v100h100v100h100v100
z" />
    <glyph glyph-name="zero" unicode="0" 
d="M0 700h700v-700h-700v700zM600 100v500h-500v-500h500zM200 500h300v-300h-300v300zM400 300v100h-100v-100h100z" />
    <glyph glyph-name="one" unicode="1" horiz-adv-x="602" 
d="M400 300h100v-300h-500v300h100v100h-100v300h400v-400zM399 100v100h-100v400h-200v-100h100v-300h-100v-100h300z" />
    <glyph glyph-name="two" unicode="2" 
d="M0 700h700v-700h-700v700zM600 300v300h-501v-100h401v-100h-401v-300h501v100h-400v100h400z" />
    <glyph glyph-name="three" unicode="3" 
d="M0 700h700v-700h-700v700zM600 100v500h-501v-100h401v-100h-401v-100h401v-100h-401v-100h501z" />
    <glyph glyph-name="four" unicode="4" 
d="M400 700h300v-700h-300v100h-400v600h300v-300h100v300zM600 100v500h-101v-300h-299v300h-101v-400h401v-100h100z" />
    <glyph glyph-name="five" unicode="5" 
d="M0 700h700v-700h-700v700zM600 500v100h-501v-300h401v-100h-401v-100h501v300h-400v100h400z" />
    <glyph glyph-name="six" unicode="6" 
d="M0 700h700v-700h-700v700zM600 500v100h-501v-500h501v300h-400v100h400zM500 300v-100h-300v100h300z" />
    <glyph glyph-name="seven" unicode="7" 
d="M0 700h700v-700h-300v400h-400v300zM600 100v500h-501v-100h401v-400h100z" />
    <glyph glyph-name="eight" unicode="8" 
d="M0 700h700v-700h-700v700zM600 100v500h-500v-500h500zM500 500v-100h-300v100h300zM500 300v-100h-300v100h300z" />
    <glyph glyph-name="nine" unicode="9" 
d="M0 700h700v-700h-700v700zM600 100v500h-501v-300h401v-100h-401v-100h501zM500 500v-100h-300v100h300z" />
    <glyph glyph-name="colon" unicode=":" horiz-adv-x="403" 
d="M0 600h300v-500h-300v500zM200 200v100h-100v-100h100zM200 400v100h-100v-100h100z" />
    <glyph glyph-name="semicolon" unicode=";" horiz-adv-x="400" 
d="M0 600h300v-600h-300v600zM200 101v199h-100v-199h100zM200 400v100h-100v-100h100z" />
    <glyph glyph-name="less" unicode="&#x3c;" horiz-adv-x="602" 
d="M300 500h100v100h-100v-100zM200 400h100v100h-100v-100zM200 300v100h-100v-100h100zM300 200v100h-100v-100h100zM300 100h100v100h-100v-100zM200 200h-100v100h-100v100h100v100h100v100h100v101h200v-201h-100v-100h-100v-100h100v-100h100v-200h-200v100h-100v100z
" />
    <glyph glyph-name="equal" unicode="=" horiz-adv-x="602" 
d="M0 600h500v-500h-500v500zM400 200v100h-300v-100h300zM400 400v100h-300v-100h300z" />
    <glyph glyph-name="greater" unicode="&#x3e;" horiz-adv-x="602" 
d="M200 201h-100v-100h100v100zM300 301h-100v-100h100v100zM300 401v-100h100v100h-100zM200 501v-100h100v100h-100zM200 601h-100v-100h100v100zM300 501h100v-100h100v-100h-100v-100h-100v-100h-100v-101h-200v201h100v100h100v100h-100v100h-100v200h200v-100h100
v-100z" />
    <glyph glyph-name="question" unicode="?" 
d="M500 0h-300v400h-200v300h700v-500h-200v-200zM400 100v100h-100v-100h100zM100 500h400v-100h-200v-100h300v300h-500v-100z" />
    <glyph glyph-name="A" unicode="A" 
d="M0 700h700v-700h-300v200h-100v-200h-300v700zM600 99v501h-500v-501h100v201h300v-201h100zM500 500v-100h-300v100h300z" />
    <glyph glyph-name="B" unicode="B" 
d="M0 700h700v-700h-700v700zM600 100v500h-500v-500h500zM500 500v-100h-300v100h300zM500 300v-100h-300v100h300z" />
    <glyph glyph-name="C" unicode="C" horiz-adv-x="802" 
d="M300 300h400v-300h-700v700h700v-300h-400v-100zM600 100v100h-400v300h400v100h-500v-500h500z" />
    <glyph glyph-name="D" unicode="D" 
d="M600 100v-100h-600v700h600v-100h100v-500h-100zM100 100h400v100h100v300h-100v100h-400v-500zM200 500h300v-300h-300v300zM400 300v100h-100v-100h100z" />
    <glyph glyph-name="E" unicode="E" horiz-adv-x="804" 
d="M0 700h700v-700h-700v700zM600 500v100h-500v-500h500v100h-400v100h400v100h-400v100h400z" />
    <glyph glyph-name="F" unicode="F" 
d="M0 700h700v-500h-400v-200h-300v700zM600 500v100h-500v-500h100v200h400v100h-400v100h400z" />
    <glyph glyph-name="G" unicode="G" 
d="M0 700h700v-700h-700v700zM600 500v100h-500v-500h500v300h-100v-200h-300v300h400zM400 400h-100v-100h100v100z" />
    <glyph glyph-name="H" unicode="H" 
d="M400 700h300v-700h-300v200h-100v-200h-300v700h300v-200h100v200zM600 100v500h-100v-200h-300v200h-100v-500h100v200h300v-200h100z" />
    <glyph glyph-name="I" unicode="I" horiz-adv-x="602" 
d="M400 300h100v-300h-500v300h100v100h-100v300h500v-300h-100v-100zM400 100v100h-100v300h100v100h-300v-100h100v-300h-100v-100h300z" />
    <glyph glyph-name="J" unicode="J" 
d="M400 700h300v-700h-700v400h300v-100h100v400zM600 100v500h-100v-400h-300v100h-100v-200h500z" />
    <glyph glyph-name="K" unicode="K" 
d="M600 400v-100h100v-300h-300v200h-100v-200h-300v700h300v-200h100v200h300v-300h-100zM500 400h100v200h-100v-200zM500 300v100h-300v200h-100v-500h100v200h300zM600 300h-100v-200h100v200z" />
    <glyph glyph-name="L" unicode="L" 
d="M300 300h400v-300h-700v700h300v-400zM600 100v100h-400v400h-100v-500h500z" />
    <glyph glyph-name="M" unicode="M" 
d="M0 700h700v-700h-700v700zM600 100v500h-500v-500h100v400h100v-400h100v400h100v-400h100z" />
    <glyph glyph-name="N" unicode="N" 
d="M0 700h700v-700h-300v400h-100v-400h-300v700zM600 100v500h-500v-500h100v400h300v-400h100z" />
    <glyph glyph-name="O" unicode="O" 
d="M0 700h700v-700h-700v700zM600 100v500h-500v-500h500zM200 500h300v-300h-300v300zM400 300v100h-100v-100h100z" />
    <glyph glyph-name="P" unicode="P" 
d="M300 200v-200h-300v700h700v-500h-400zM100 100h100v200h400v300h-500v-500zM500 500v-100h-300v100h300z" />
    <glyph glyph-name="Q" unicode="Q" horiz-adv-x="901" 
d="M700 300h100v-300h-800v700h700v-400zM700 100v100h-100v400h-500v-500h600zM200 500h300v-300h-300v300zM400 300v100h-100v-100h100z" />
    <glyph glyph-name="R" unicode="R" 
d="M600 400v200h-500v-500h100v200h300v100h-300v100h300v-100h100zM600 300h100v-300h-300v200h-100v-200h-300v700h700v-300h-100v-100zM500 300v-200h100v200h-100z" />
    <glyph glyph-name="S" unicode="S" 
d="M0 700h700v-700h-700v700zM600 99v301h-400v100h400v99h-500v-299h400v-100h-400v-101h500z" />
    <glyph glyph-name="T" unicode="T" 
d="M200 400h-200v300h700v-300h-200v-400h-300v400zM100 599v-99h200v-401h100v401h200v99h-500z" />
    <glyph glyph-name="U" unicode="U" 
d="M700 0h-700v700h300v-400h100v400h300v-700zM100 600v-500h500v500h-100v-400h-300v400h-100z" />
    <glyph glyph-name="V" unicode="V" 
d="M400 700h300v-600h-100v-100h-500v100h-100v600h300v-400h100v400zM600 200v400h-100v-400h-300v400h-100v-400h99v-100h301v100h100z" />
    <glyph glyph-name="W" unicode="W" 
d="M700 0h-700v700h700v-700zM100 600v-500h500v500h-100v-400h-100v400h-100v-400h-100v400h-100z" />
    <glyph glyph-name="X" unicode="X" 
d="M500 300v-200h100v200h-100zM500 400h100v200h-100v-200zM200 300h300v100h-300v-100zM100 300v-200h100v200h-100zM100 400h-100v300h300v-200h100v200h300v-300h-100v-100h100v-300h-300v200h-100v-200h-300v300h100v100zM200 400v200h-100v-200h100z" />
    <glyph glyph-name="Y" unicode="Y" 
d="M200 200h-200v500h300v-200h100v200h300v-500h-200v-200h-300v200zM100 600v-300h200v-200h100v200h200v300h-100v-200h-300v200h-100z" />
    <glyph glyph-name="Z" unicode="Z" 
d="M0 700h700v-700h-700v700zM600 300v300h-500v-100h400v-100h-400v-300h500v100h-400v100h400z" />
    <glyph glyph-name="bracketleft" unicode="[" horiz-adv-x="502" 
d="M300 300h100v-300h-400v700h400v-300h-100v-100zM300 100v100h-100v300h100v100h-200v-500h200z" />
    <glyph glyph-name="backslash" unicode="\" 
d="M600 200h-100v-100h100v100zM500 300h-100v-100h100v100zM400 400h-100v-100h100v100zM300 500h-100v-100h100v100zM200 600h-100v-100h100v100zM200 700v-100h100v-100h100v-100h100v-100h100v-100h100v-200h-200v100h-100v100h-100v100h-100v100h-100v100h-100v200h200
z" />
    <glyph glyph-name="bracketright" unicode="]" horiz-adv-x="500" 
d="M100 400h-100v300h400v-700h-400v300h100v100zM100 600v-100h100v-300h-100v-100h200v500h-200z" />
    <glyph glyph-name="asciicircum" unicode="^" horiz-adv-x="602" 
d="M400 600h100v-300h-500v300h100v100h300v-100zM400 400v100h-100v100h-100v-100h-100v-100h100v100h100v-100h100z" />
    <glyph glyph-name="underscore" unicode="_" horiz-adv-x="602" 
d="M0 300h500v-300h-500v300zM400 100v100h-300v-100h300z" />
    <glyph glyph-name="grave" unicode="`" horiz-adv-x="500" 
d="M300 600h100v-300h-300v100h-100v300h300v-100zM300 400v100h-100v100h-100v-100h100v-100h100z" />
    <glyph glyph-name="a" unicode="a" horiz-adv-x="602" 
d="M100 401v-300h300v300h-300zM100 500h400v-500h-500v401h100v99zM300 301v-100h-100v100h100z" />
    <glyph glyph-name="b" unicode="b" horiz-adv-x="602" 
d="M300 500h200v-500h-500v700h300v-200zM399 101v300h-199v199h-100l-1 -499h300zM200 201v100h100v-100h-100z" />
    <glyph glyph-name="c" unicode="c" horiz-adv-x="602" 
d="M0 500h500v-500h-500v500zM399 300v101h-300v-300h300v99h-199v100h199z" />
    <glyph glyph-name="d" unicode="d" horiz-adv-x="602" 
d="M0 500h200v200h300v-700h-500v500zM101 401v-300h300l-1 499h-100v-199h-199zM300 201h-100v100h100v-100z" />
    <glyph glyph-name="e" unicode="e" horiz-adv-x="602" 
d="M400 200v-200h-400v500h500v-300h-100zM300 200h-100v100h199v101h-300v-300h201v99z" />
    <glyph glyph-name="f" unicode="f" horiz-adv-x="599" 
d="M100 500v200h400v-500h-100v-200h-300v200h-100v300h100zM201 400h-100v-100h100v-199h100v199h100v100h-100v100h100v100h-200v-200z" />
    <glyph glyph-name="g" unicode="g" horiz-adv-x="602" 
d="M0 499h500v-599h-300v99h-200v500zM300 0h100l1 399h-300v-300h199v-99zM300 299v-100h-100v100h100z" />
    <glyph glyph-name="h" unicode="h" horiz-adv-x="602" 
d="M300 500h200v-500h-500v700h300v-200zM400 100v300h-200v200h-99v-500h99v200h100v-200h100z" />
    <glyph glyph-name="i" unicode="i" horiz-adv-x="400" 
d="M0 700h300v-700h-300v700zM200 100v300h-100v-300h100zM200 500v100h-99v-100h99z" />
    <glyph glyph-name="j" unicode="j" horiz-adv-x="502" 
d="M100 700h300v-800h-400v301h100v499zM201 600v-100h99v100h-99zM100 0h200v400h-100v-300h-100v-100z" />
    <glyph glyph-name="k" unicode="k" horiz-adv-x="602" 
d="M300 301h100v100h-100v-100zM200 100v101h100v100h-100v300h-101v-501h101zM500 1h-200v99h-100v-99h-200v700h300v-201h200v-199h-100v-100h-100v-101h100v100h100v-199z" />
    <glyph glyph-name="l" unicode="l" horiz-adv-x="400" 
d="M0 700h300v-700h-300v700zM200 100v501h-101v-501h101z" />
    <glyph glyph-name="m" unicode="m" 
d="M0 500h700v-500h-700v500zM600 100v300h-501v-300h101v200h100v-200h100v200h100v-200h100z" />
    <glyph glyph-name="n" unicode="n" horiz-adv-x="602" 
d="M0 500h500v-500h-500v500zM400 100v300h-301v-300h101v200h100v-200h100z" />
    <glyph glyph-name="o" unicode="o" horiz-adv-x="602" 
d="M0 500h500v-500h-500v500zM400 100v300h-301v-300h301zM300 300v-100h-100v100h100z" />
    <glyph glyph-name="p" unicode="p" horiz-adv-x="602" 
d="M0 499h500v-500h-200v-99h-300v599zM100 0h100v99h199v300h-300zM200 299h100v-100h-100v100z" />
    <glyph glyph-name="q" unicode="q" horiz-adv-x="699" 
d="M0 -2v500h500v-200h99v-300h-599zM499 98v100h-98v200h-300v-300h398zM201 198v100h100v-100h-100z" />
    <glyph glyph-name="r" unicode="r" horiz-adv-x="602" 
d="M300 200v-200h-300v500h500v-300h-200zM99 100h101v200h200v100h-301v-300z" />
    <glyph glyph-name="s" unicode="s" horiz-adv-x="602" 
d="M300 400h200v-400h-300v100h-200v400h300v-100zM400 100v200h-200v100h-101v-200h201v-100h100z" />
    <glyph glyph-name="t" unicode="t" horiz-adv-x="602" 
d="M400 500h100v-300h-100v-200h-300v200h-100v300h100v100h300v-100zM400 300v100h-100v100h-100v-100h-101v-100h101v-200h100v200h100z" />
    <glyph glyph-name="u" unicode="u" horiz-adv-x="602" 
d="M500 0h-500v500h500v-500zM400 100v300h-100v-200h-100v200h-101v-300h301z" />
    <glyph glyph-name="v" unicode="v" horiz-adv-x="602" 
d="M400 100v-100h-301v100h-99v400h500v-400h-100zM99 100h301v300h-100v-200h-100v200h-101v-300z" />
    <glyph glyph-name="w" unicode="w" 
d="M700 0h-700v500h700v-500zM100 400v-300h501v300h-101v-200h-100v200h-100v-200h-100v200h-100z" />
    <glyph glyph-name="x" unicode="x" horiz-adv-x="602" 
d="M400 300v100h-100v-100h100zM300 100h100v100h-100v-100zM200 200h100v100h-100v-100zM99 200v-100h101v100h-101zM99 300h-99v200h200v-100h100v100h200v-200h-100v-100h100v-200h-200v100h-100v-100h-200v200h99v100zM200 300v100h-101v-100h101z" />
    <glyph glyph-name="y" unicode="y" horiz-adv-x="602" 
d="M0 500h500v-500h-100v-100h-300v100h-100v500zM400 100v300h-100v-300h-100v300h-100v-300h100v-100h100v100h100z" />
    <glyph glyph-name="z" unicode="z" horiz-adv-x="602" 
d="M100 300h-100v200h500v-200h-100v-100h100v-200h-500v200h100v100zM200 300v-100h-100v-100h300v100h-100v100h100v100h-300v-100h100z" />
    <glyph glyph-name="braceleft" unicode="{" horiz-adv-x="602" 
d="M400 300h100v-300h-400v200h-100v300h100v200h400v-300h-100v-100zM399 500v100h-200v-200h-99v-100h99v-200h200v100h-100v300h100z" />
    <glyph glyph-name="bar" unicode="|" horiz-adv-x="400" 
d="M0 700h300v-700h-300v700zM200 100v501h-101v-501h101z" />
    <glyph glyph-name="braceright" unicode="}" horiz-adv-x="602" 
d="M100 400h-100v300h400v-200h100v-300h-100v-200h-400v300h100v100zM101 200v-100h200v200h99v100h-99v200h-200v-100h100v-300h-100z" />
    <glyph glyph-name="asciitilde" unicode="~" horiz-adv-x="702" 
d="M500 300h-500v300h100v100h500v-300h-100v-100zM200 500h100v-100h100v100h99v100h-99v-100h-100v100h-100v-100h-100v-100h100v100z" />
    <glyph glyph-name="nonbreakingspace" unicode="&#xa0;" horiz-adv-x="700" 
 />
    <glyph glyph-name="minus" unicode="&#xad;" horiz-adv-x="601" 
d="M0 501h500v-300h-500v300zM400 301v100h-300v-100h300z" />
    <glyph glyph-name="minus" unicode="&#x2212;" horiz-adv-x="601" 
d="M0 501h500v-300h-500v300zM400 301v100h-300v-100h300z" />
  </font>
</defs>
</svg>
